# xmcd
#
# Track frame offsets:
#	150
#	28032
#	49765
#	59562
#	114966
#
# Disc length: 2047 seconds
#
# Revision: 1
# Processed by: cddbd v1.5.1PL0 Copyright (c) Steve Scherf et al.
# Submitted via: audiograbber 1.82.01
#
DISCID=3d07fd05
DTITLE=George Thorogood - 2004-04-30 - Ancienne Belgique,Brussels , Belgium - D
DTITLE=isc 2
DYEAR=1900
DGENRE=
TTITLE0=George Thorogood - Gear Jammer
TTITLE1=George Thorogood - Move It On Over
TTITLE2=George Thorogood - That'S It , I Quit ( Cut At Beginning)
TTITLE3=George Thorogood - Rocking My Life Away
TTITLE4=George Thorogood - Johnny B - Good
EXTD=
EXTT0=
EXTT1=
EXTT2=
EXTT3=
EXTT4=
PLAYORDER=
